# xmcd
#
# Track frame offsets:
#	150
#	18603
#	37885
#	54763
#	76360
#	103175
#	121125
#	141405
#	162678
#	179455
#	195375
#	217943
#	232778
#	252508
#	293730
#	311710
#	338618
#
# Disc length: 4687 seconds
#
# Revision: 2
# Processed by: cddbd v1.5.2PL0 Copyright (c) Steve Scherf et al.
# Submitted via: audiograbber 1.83.01
#
DISCID=ea124d11
DTITLE=Albert King - The Heat of the Blues [CD2)
DYEAR=2007
DGENRE=Blues
TTITLE0=Love Shock
TTITLE1=You Upset Me Baby
TTITLE2=Chump Change
TTITLE3=Let Me Rock You Easy
TTITLE4=Boot Lace
TTITLE5=Love Mechanic
TTITLE6=Call My Job
TTITLE7=Good Time Charlie
TTITLE8=Get Out Of My Life Woman
TTITLE9=Born Under A Bad Sign
TTITLE10=The Feeling
TTITLE11=We All Wanna Boogie
TTITLE12=The Very Thought Of You
TTITLE13=I Got The Blues
TTITLE14=I Get Evil
TTITLE15=Angel Of Mercy
TTITLE16=Flat Tire
EXTD=
EXTT0=
EXTT1=
EXTT2=
EXTT3=
EXTT4=
EXTT5=
EXTT6=
EXTT7=
EXTT8=
EXTT9=
EXTT10=
EXTT11=
EXTT12=
EXTT13=
EXTT14=
EXTT15=
EXTT16=
PLAYORDER=
